# xmcd CD database file generated by Grip 3.2.0
# 
# Track frame offsets:
#       183
#       20283
#       47513
#       65220
#       86913
#       113883
#       130945
#       148548
#       166278
#       180925
# 
# Disc length: 2776 seconds
# 
# Revision: 2
# Processed by: cddbd v1.5.2PL0 Copyright (c) Steve Scherf et al.
# Submitted via: Grip 3.2.0
# 
DISCID=840ad60a
DTITLE=Left Hand Frank - Live At The Knickerbocker Cafe
DYEAR=1992
DGENRE=Blues
TTITLE0=Jammin' With Frank
TTITLE1=Last Nite (Intr.)
TTITLE2=Linda Lu
TTITLE3=Honky Tonk (Instr.)
TTITLE4=One Room Country Shack
TTITLE5=Blue Room Shuffle (Instr.)
TTITLE6=South Side Hop (Intr.)
TTITLE7=Surfin' With Frank (Instr.)
TTITLE8=How Long
TTITLE9=Last Nite (Vocal Version)
EXTD=
EXTT0=
EXTT1=
EXTT2=
EXTT3=
EXTT4=
EXTT5=
EXTT6=
EXTT7=
EXTT8=
EXTT9=
PLAYORDER=
